<svg width="20" height="18" viewBox="0 0 20 18" fill="none" xmlns="http://www.w3.org/2000/svg">
<path d="M4.69137 2.14642C4.69111 2.66375 4.48535 3.1598 4.11935 3.52543C3.75336 3.89105 3.25711 4.09632 2.73977 4.09606C2.22244 4.0958 1.72639 3.89004 1.36076 3.52405C0.995135 3.15805 0.789872 2.6618 0.790131 2.14447C0.79039 1.62713 0.996148 1.13109 1.36214 0.765457C1.72814 0.399828 2.22439 0.194566 2.74172 0.194824C3.25906 0.195083 3.7551 0.400842 4.12073 0.766837C4.48636 1.13283 4.69162 1.62908 4.69137 2.14642ZM4.74988 5.54049H0.848649V17.7514H4.74988V5.54049ZM10.9138 5.54049H7.03211V17.7514H10.8748V11.3436C10.8748 7.77395 15.527 7.44234 15.527 11.3436V17.7514H19.3795V10.0172C19.3795 3.9995 12.4938 4.22382 10.8748 7.17901L10.9138 5.54049Z" fill="white"/>
</svg>
