<svg width="50" height="50" viewBox="0 0 50 50" fill="none" xmlns="http://www.w3.org/2000/svg">
<path d="M49.8589 22.3245H5.51488C5.74608 20.6108 6.20239 18.943 6.87972 17.3423C7.86973 15.0025 9.28855 12.8993 11.096 11.0925C11.4127 10.7758 11.7386 10.4709 12.0732 10.1791C12.2326 10.3487 12.3946 10.5157 12.5596 10.6806C14.5666 12.687 16.9042 14.2622 19.5081 15.3634C22.2052 16.5033 25.0687 17.0822 28.0189 17.0822H48.7222C48.0923 15.1934 47.2428 13.4049 46.2039 11.7467C41.785 4.69196 33.9408 0 25 0C20.8 0 16.842 1.03502 13.3678 2.86425C11.7733 3.70378 10.2806 4.71028 8.91322 5.86088C4.10317 9.90678 0.840294 15.7335 0.141068 22.3245C0.0478713 23.2012 0 24.0906 0 24.9922C0 25.8938 0.0478713 26.7832 0.141068 27.66H44.4847C44.2534 29.3737 43.7972 31.0414 43.1198 32.6422C42.1297 34.9819 40.7109 37.0852 38.9036 38.8915C38.5867 39.2081 38.2608 39.513 37.9262 39.8053C37.7669 39.6358 37.6048 39.4683 37.4398 39.3032C35.4328 37.297 33.0953 35.7217 30.4914 34.6205C27.7944 33.4807 24.9313 32.9018 21.9805 32.9018H1.27775C1.90772 34.7906 2.75719 36.5791 3.79609 38.2372C8.21502 45.2925 16.0592 49.9844 25 49.9844C29.1994 49.9844 33.1575 48.9495 36.6317 47.1202C38.2262 46.2812 39.7194 45.2742 41.0867 44.1241C45.8969 40.0772 49.1597 34.2509 49.8589 27.66C49.9522 26.7832 50 25.8938 50 24.9922C50 24.0906 49.9522 23.2012 49.8589 22.3245ZM17.3477 6.87808C19.7683 5.85477 22.3431 5.33548 25 5.33548C27.6569 5.33548 30.2313 5.85426 32.6517 6.87808C34.9923 7.86779 37.0961 9.28617 38.9036 11.0925C39.1175 11.3068 39.3262 11.5247 39.5294 11.7472H28.0189C23.6133 11.7472 19.6044 10.0147 16.6383 7.19474C16.8727 7.08426 17.1089 6.97889 17.3477 6.87808ZM32.6517 43.1064C30.2313 44.1297 27.6569 44.6489 25 44.6489C22.3431 44.6489 19.7683 44.1297 17.3477 43.1064C15.0071 42.1166 12.9033 40.6983 11.096 38.8915C10.882 38.6777 10.6732 38.4597 10.4706 38.2372H21.9805C26.3863 38.2372 30.3952 39.9697 33.3612 42.7897C33.1269 42.9002 32.8906 43.0055 32.6517 43.1064Z" fill="url(#paint0_linear_8441_6)"/>
<defs>
<linearGradient id="paint0_linear_8441_6" x1="-8.46769e-07" y1="11.1077" x2="77.543" y2="32.5012" gradientUnits="userSpaceOnUse">
<stop stop-color="#F3451C"/>
<stop offset="1" stop-color="#FF933A"/>
</linearGradient>
</defs>
</svg>
