<svg width="149" height="31" viewBox="0 0 149 31" fill="none" xmlns="http://www.w3.org/2000/svg">
<path d="M93.5357 15.0842C94.3661 15.3471 95.0161 15.7897 95.487 16.4123C95.9578 17.0209 96.1927 17.775 96.1927 18.6741C96.1927 19.9469 95.6945 20.9291 94.6982 21.6208C93.7157 22.2987 92.2764 22.6376 90.3806 22.6376H82.8663V8.11182H89.9654C91.7367 8.11182 93.093 8.45075 94.0339 9.12862C94.9888 9.80652 95.4662 10.7265 95.4662 11.8885C95.4662 12.5941 95.2935 13.2235 94.9473 13.7769C94.6151 14.3303 94.1446 14.766 93.5357 15.0842ZM86.2083 10.6435V14.0674H89.5503C90.3806 14.0674 91.0102 13.9221 91.4392 13.6316C91.8683 13.3411 92.0827 12.9122 92.0827 12.345C92.0827 11.7779 91.8683 11.3559 91.4392 11.0792C91.0102 10.7887 90.3806 10.6435 89.5503 10.6435H86.2083ZM90.1315 20.106C91.0172 20.106 91.6814 19.9607 92.1242 19.6702C92.5809 19.3797 92.8092 18.93 92.8092 18.3214C92.8092 17.1178 91.9167 16.516 90.1315 16.516H86.2083V20.106H90.1315ZM103.824 22.8036C102.648 22.8036 101.59 22.5615 100.648 22.0773C99.7215 21.5793 98.995 20.8945 98.4685 20.023C97.943 19.1514 97.6797 18.1623 97.6797 17.0556C97.6797 15.9489 97.943 14.9597 98.4685 14.0881C98.995 13.2166 99.7215 12.5387 100.648 12.0545C101.59 11.5565 102.648 11.3075 103.824 11.3075C105.001 11.3075 106.053 11.5565 106.979 12.0545C107.907 12.5387 108.633 13.2166 109.159 14.0881C109.685 14.9597 109.947 15.9489 109.947 17.0556C109.947 18.1623 109.685 19.1514 109.159 20.023C108.633 20.8945 107.907 21.5793 106.979 22.0773C106.053 22.5615 105.001 22.8036 103.824 22.8036ZM103.824 20.1475C104.654 20.1475 105.333 19.8708 105.858 19.3174C106.398 18.7503 106.668 17.9962 106.668 17.0556C106.668 16.1149 106.398 15.3678 105.858 14.8144C105.333 14.2473 104.654 13.9636 103.824 13.9636C102.994 13.9636 102.309 14.2473 101.769 14.8144C101.229 15.3678 100.959 16.1149 100.959 17.0556C100.959 17.9962 101.229 18.7503 101.769 19.3174C102.309 19.8708 102.994 20.1475 103.824 20.1475ZM117.426 22.8036C116.25 22.8036 115.192 22.5615 114.25 22.0773C113.323 21.5793 112.597 20.8945 112.07 20.023C111.545 19.1514 111.282 18.1623 111.282 17.0556C111.282 15.9489 111.545 14.9597 112.07 14.0881C112.597 13.2166 113.323 12.5387 114.25 12.0545C115.192 11.5565 116.25 11.3075 117.426 11.3075C118.602 11.3075 119.654 11.5565 120.581 12.0545C121.509 12.5387 122.235 13.2166 122.761 14.0881C123.287 14.9597 123.549 15.9489 123.549 17.0556C123.549 18.1623 123.287 19.1514 122.761 20.023C122.235 20.8945 121.509 21.5793 120.581 22.0773C119.654 22.5615 118.602 22.8036 117.426 22.8036ZM117.426 20.1475C118.256 20.1475 118.935 19.8708 119.46 19.3174C120 18.7503 120.27 17.9962 120.27 17.0556C120.27 16.1149 120 15.3678 119.46 14.8144C118.935 14.2473 118.256 13.9636 117.426 13.9636C116.596 13.9636 115.911 14.2473 115.371 14.8144C114.831 15.3678 114.561 16.1149 114.561 17.0556C114.561 17.9962 114.831 18.7503 115.371 19.3174C115.911 19.8708 116.596 20.1475 117.426 20.1475ZM129.471 22.8036C128.544 22.8036 127.638 22.693 126.752 22.4716C125.867 22.2365 125.161 21.9459 124.634 21.6001L125.714 19.2759C126.212 19.5941 126.814 19.857 127.52 20.0645C128.225 20.2581 128.918 20.355 129.595 20.355C130.965 20.355 131.65 20.0161 131.65 19.3382C131.65 19.02 131.464 18.7918 131.09 18.6534C130.716 18.515 130.143 18.3975 129.367 18.3006C128.454 18.1623 127.7 18.0032 127.105 17.8234C126.51 17.6435 125.991 17.3253 125.548 16.8688C125.119 16.4123 124.904 15.7621 124.904 14.9182C124.904 14.2127 125.105 13.5901 125.506 13.0506C125.921 12.4972 126.517 12.0684 127.291 11.764C128.08 11.4596 129.008 11.3075 130.073 11.3075C130.862 11.3075 131.644 11.3974 132.419 11.5773C133.207 11.7433 133.858 11.9784 134.37 12.2828L133.29 14.5862C132.308 14.0328 131.235 13.7561 130.073 13.7561C129.381 13.7561 128.862 13.853 128.516 14.0466C128.171 14.2403 127.997 14.4893 127.997 14.7937C127.997 15.1396 128.184 15.3816 128.558 15.52C128.931 15.6583 129.527 15.7897 130.343 15.9142C131.256 16.0664 132.003 16.2324 132.585 16.4123C133.166 16.5783 133.672 16.8895 134.1 17.3461C134.529 17.8026 134.743 18.439 134.743 19.2552C134.743 19.9469 134.536 20.5625 134.121 21.102C133.705 21.6416 133.097 22.0635 132.294 22.3679C131.505 22.6584 130.564 22.8036 129.471 22.8036ZM143.945 22.0981C143.626 22.3332 143.231 22.5131 142.761 22.6376C142.305 22.7483 141.82 22.8036 141.308 22.8036C139.98 22.8036 138.949 22.4647 138.216 21.7868C137.496 21.1089 137.136 20.1129 137.136 18.7987V14.2127H135.413V11.7225H137.136V9.00411H140.374V11.7225H143.156V14.2127H140.374V18.7572C140.374 19.2275 140.491 19.5941 140.727 19.857C140.976 20.106 141.322 20.2305 141.765 20.2305C142.276 20.2305 142.712 20.0921 143.073 19.8155L143.945 22.0981Z" fill="white"/>
<path d="M146.987 22.8037C146.419 22.8037 145.942 22.6101 145.554 22.2227C145.167 21.8353 144.973 21.3512 144.973 20.7701C144.973 20.1752 145.167 19.698 145.554 19.3383C145.942 18.9648 146.419 18.778 146.987 18.778C147.555 18.778 148.032 18.9648 148.419 19.3383C148.807 19.698 149 20.1752 149 20.7701C149 21.3512 148.807 21.8353 148.419 22.2227C148.032 22.6101 147.555 22.8037 146.987 22.8037Z" fill="#F4461D"/>
<path d="M38.5205 8.11182H45.1214C46.699 8.11182 48.0898 8.41617 49.2937 9.02487C50.5115 9.61976 51.4525 10.4636 52.1167 11.5565C52.7949 12.6494 53.1339 13.9221 53.1339 15.3747C53.1339 16.8273 52.7949 18.1 52.1167 19.1929C51.4525 20.2859 50.5115 21.1367 49.2937 21.7453C48.0898 22.3402 46.699 22.6376 45.1214 22.6376H38.5205V8.11182ZM44.9554 19.8777C46.4084 19.8777 47.5639 19.4766 48.4219 18.6741C49.2937 17.858 49.7296 16.7582 49.7296 15.3747C49.7296 13.9913 49.2937 12.8984 48.4219 12.096C47.5639 11.2799 46.4084 10.8717 44.9554 10.8717H41.8832V19.8777H44.9554ZM66.3808 17.0971C66.3808 17.1386 66.36 17.4291 66.3185 17.9686H57.8702C58.0224 18.6603 58.3821 19.2068 58.9496 19.6079C59.5169 20.0091 60.2227 20.2097 61.0669 20.2097C61.6481 20.2097 62.16 20.1267 62.6029 19.9607C63.0596 19.7808 63.4816 19.5042 63.8691 19.1307L65.592 20.9983C64.5403 22.2018 63.0042 22.8036 60.9838 22.8036C59.7245 22.8036 58.6105 22.5615 57.6418 22.0773C56.6731 21.5793 55.9259 20.8945 55.4 20.023C54.8741 19.1514 54.6112 18.1623 54.6112 17.0556C54.6112 15.9626 54.8672 14.9804 55.3793 14.1089C55.9051 13.2235 56.6177 12.5387 57.5173 12.0545C58.4306 11.5565 59.4478 11.3075 60.5687 11.3075C61.6618 11.3075 62.6513 11.5426 63.537 12.013C64.4226 12.4834 65.1146 13.1612 65.6128 14.0466C66.1247 14.9182 66.3808 15.935 66.3808 17.0971ZM60.5894 13.7561C59.8559 13.7561 59.2402 13.9636 58.742 14.3787C58.2438 14.7937 57.9393 15.3609 57.8287 16.0803H63.3294C63.2187 15.3747 62.9143 14.8144 62.4161 14.3994C61.9179 13.9705 61.309 13.7561 60.5894 13.7561ZM79.4185 11.4735L74.7065 22.6376H71.3645L66.6733 11.4735H70.0153L73.1082 19.0684L76.3048 11.4735H79.4185Z" fill="url(#paint0_linear_7515_114)"/>
<path d="M30.1077 13.4808H3.3302C3.46981 12.446 3.74536 11.4389 4.15437 10.4723C4.7522 9.05935 5.60896 7.78936 6.70037 6.69829C6.89166 6.50707 7.08847 6.32291 7.29051 6.14675C7.38677 6.24913 7.48456 6.34996 7.5842 6.44958C8.79616 7.66115 10.2077 8.61235 11.7801 9.27732C13.4088 9.96564 15.138 10.3152 16.9194 10.3152H29.4213C29.0409 9.17464 28.5279 8.09463 27.9006 7.09333C25.2322 2.83328 20.4954 0 15.0964 0C12.5602 0 10.1702 0.625006 8.07224 1.7296C7.10938 2.23656 6.20802 2.84434 5.38231 3.53914C2.47773 5.98228 0.507418 9.50082 0.0851847 13.4808C0.0289074 14.0102 0 14.5473 0 15.0917C0 15.6362 0.0289074 16.1733 0.0851847 16.7027H26.8624C26.7228 17.7375 26.4473 18.7446 26.0382 19.7112C25.4403 21.1241 24.5836 22.3942 23.4922 23.4849C23.3009 23.6761 23.1041 23.8602 22.9021 24.0367C22.8058 23.9344 22.708 23.8333 22.6083 23.7336C21.3964 22.5221 19.9849 21.5708 18.4125 20.9058C16.7838 20.2176 15.0549 19.868 13.2731 19.868H0.771582C1.15199 21.0086 1.66495 22.0886 2.2923 23.0898C4.9607 27.3502 9.69748 30.1835 15.0964 30.1835C17.6323 30.1835 20.0224 29.5585 22.1203 28.4539C23.0832 27.9473 23.9848 27.3392 24.8105 26.6447C27.7152 24.2009 29.6854 20.6827 30.1077 16.7027C30.164 16.1733 30.1929 15.6362 30.1929 15.0917C30.1929 14.5473 30.164 14.0102 30.1077 13.4808ZM10.4755 4.15338C11.9372 3.53545 13.4921 3.22187 15.0964 3.22187C16.7008 3.22187 18.2554 3.53514 19.717 4.15338C21.1304 4.75102 22.4008 5.60752 23.4922 6.69829C23.6214 6.82771 23.7475 6.95929 23.8701 7.09364H16.9194C14.2591 7.09364 11.8382 6.04746 10.0472 4.3446C10.1887 4.27789 10.3313 4.21426 10.4755 4.15338ZM19.717 26.0301C18.2554 26.6481 16.7008 26.9616 15.0964 26.9616C13.4921 26.9616 11.9372 26.6481 10.4755 26.0301C9.06217 25.4324 7.79178 24.576 6.70037 23.4849C6.57121 23.3558 6.44512 23.2242 6.32273 23.0898H13.2731C15.9335 23.0898 18.3543 24.136 20.1454 25.8389C20.0039 25.9056 19.8613 25.9692 19.717 26.0301Z" fill="url(#paint1_linear_7515_114)"/>
<defs>
<linearGradient id="paint0_linear_7515_114" x1="36.7976" y1="8.48911" x2="95.29" y2="35.3851" gradientUnits="userSpaceOnUse">
<stop stop-color="#F3451C"/>
<stop offset="1" stop-color="#FF933A"/>
</linearGradient>
<linearGradient id="paint1_linear_7515_114" x1="-5.11328e-07" y1="6.70744" x2="46.8249" y2="19.6261" gradientUnits="userSpaceOnUse">
<stop stop-color="#F3451C"/>
<stop offset="1" stop-color="#FF933A"/>
</linearGradient>
</defs>
</svg>
